<?xml version="1.0" encoding="UTF-8"?>
<svg width="108px" height="29px" viewBox="0 0 108 29" version="1.1" xmlns="http://www.w3.org/2000/svg" xmlns:xlink="http://www.w3.org/1999/xlink">
    <!-- Generator: Sketch 42 (36781) - http://www.bohemiancoding.com/sketch -->
    <title>Group 4</title>
    <desc>Created with Sketch.</desc>
    <defs></defs>
    <g id="Page-1" stroke="none" stroke-width="1" fill="none" fill-rule="evenodd">
        <g id="Highball-Case-Study" transform="translate(-668.000000, -406.000000)" fill="#000000">
            <g id="Group-4" transform="translate(668.000000, 406.000000)">
                <path d="M38.0566406,21 L36.1933594,21 L40.3769531,9.00292969 L42.3457031,9.00292969 L46.5292969,21 L44.6132812,21 L43.4882812,17.5634766 L39.1816406,17.5634766 L38.0566406,21 Z M41.3701172,10.9716797 L41.3085938,10.9716797 L39.6123047,16.1572266 L43.0576172,16.1572266 L41.3701172,10.9716797 Z M49.8164062,21 L49.8164062,12.0703125 L49.8691406,12.0703125 L55.7138672,21 L57.3574219,21 L57.3574219,9.00292969 L55.6435547,9.00292969 L55.6435547,17.9150391 L55.5908203,17.9150391 L49.7548828,9.00292969 L48.1113281,9.00292969 L48.1113281,21 L49.8164062,21 Z M60.1347656,9.00292969 L64.1513672,9.00292969 C67.6933594,9.00292969 69.4599609,11.0947266 69.4599609,14.9882812 C69.4599609,18.8818359 67.6845703,21 64.1513672,21 L60.1347656,21 L60.1347656,9.00292969 Z M61.9453125,10.5585938 L61.9453125,19.4443359 L63.9931641,19.4443359 C66.3222656,19.4443359 67.5878906,18.1083984 67.5878906,15.0058594 C67.5878906,12.1318359 66.4804688,10.5585938 63.9931641,10.5585938 L61.9453125,10.5585938 Z M76.0693359,9.00292969 C78.7939453,9.00292969 80.0419922,10.6904297 80.0419922,12.6503906 C80.0419922,14.6191406 78.8291016,15.6298828 77.8271484,15.9990234 L80.2617188,21 L78.2138672,21 L76.0341797,16.3242188 L73.3798828,16.3242188 L73.3798828,21 L71.5869141,21 L71.5869141,9.00292969 L76.0693359,9.00292969 Z M73.3798828,14.8388672 L75.7705078,14.8388672 C77.3349609,14.8388672 78.1699219,14.0830078 78.1699219,12.7294922 C78.1699219,11.2705078 77.2294922,10.5234375 75.8232422,10.5234375 L73.3798828,10.5234375 L73.3798828,14.8388672 Z M83.7246094,14.1972656 L83.7246094,15.9023438 C83.7246094,18.46875 85.0605469,19.6728516 86.8183594,19.6728516 C88.5849609,19.6728516 89.9121094,18.46875 89.9121094,15.9023438 L89.9121094,14.1972656 C89.9121094,11.6396484 88.5849609,10.3300781 86.8183594,10.3300781 C85.0605469,10.3300781 83.7246094,11.6396484 83.7246094,14.1972656 Z M81.8964844,15.9023438 L81.8964844,14.2148438 C81.8964844,10.8046875 83.8300781,8.75683594 86.8359375,8.75683594 C89.8417969,8.75683594 91.7402344,10.8046875 91.7402344,14.2148438 L91.7402344,15.9023438 C91.7402344,19.2949219 89.8154297,21.2460938 86.8007812,21.2460938 C83.7949219,21.2460938 81.8964844,19.2949219 81.8964844,15.9023438 Z M95.8447266,21 L95.8447266,9.00292969 L94.0341797,9.00292969 L94.0341797,21 L95.8447266,21 Z M98.6132812,9.00292969 L102.629883,9.00292969 C106.171875,9.00292969 107.938477,11.0947266 107.938477,14.9882812 C107.938477,18.8818359 106.163086,21 102.629883,21 L98.6132812,21 L98.6132812,9.00292969 Z M100.423828,10.5585938 L100.423828,19.4443359 L102.47168,19.4443359 C104.800781,19.4443359 106.066406,18.1083984 106.066406,15.0058594 C106.066406,12.1318359 104.958984,10.5585938 102.47168,10.5585938 L100.423828,10.5585938 Z" id="ANDROID"></path>
                <path d="M27.7909244,11.8877635 C27.7511679,11.6090075 27.6070314,11.591969 27.3779326,11.592276 C23.1325829,11.598109 18.8871564,11.6007952 14.6419601,11.5884385 C14.3032624,11.5874407 14.2504584,11.7030262 14.2531446,12.0038863 C14.2671899,13.5638301 14.2595149,15.1239274 14.2597451,16.683948 C14.2597451,17.1881188 14.2601289,17.1883491 14.7477216,17.1883491 C17.0493775,17.1885026 19.3511102,17.1983266 21.6526125,17.1787553 C22.0391256,17.1755318 22.0681371,17.2970271 21.9744253,17.6093996 C21.8384243,18.0624549 21.6945948,18.5105981 21.490056,18.9386329 C20.9769822,20.0124422 20.1956672,20.8575365 19.2593939,21.5721558 C18.0789021,22.2938361 16.8154435,22.7634694 15.4288012,22.9074524 C12.4443005,23.2172154 9.95337912,22.2599126 7.94383376,20.0406095 C7.15353896,19.1678084 6.62173818,18.1402026 6.19385691,17.0534225 C5.63626813,15.1877834 5.60518438,13.3255213 6.22900841,11.4672502 C6.73601894,10.0759261 7.51042648,8.86220158 8.5994323,7.84940852 C11.77151,4.8993686 16.6442143,4.86828485 19.6293289,7.60342476 C19.8452267,7.80128627 19.9271957,7.65300526 20.0487677,7.53151 C21.2335575,6.34741094 22.4114398,5.15625087 23.6082026,3.98435505 C23.8411389,3.75625404 23.7882582,3.64842028 23.5740489,3.46391327 C20.1833105,0.544343107 16.2596967,-0.489402702 11.8757365,0.210864338 C8.74349205,0.711197616 6.0974589,2.17812045 3.91207928,4.46872433 C2.94633397,5.48098014 2.12280643,6.5995347 1.53989014,7.88156677 C3.02891698,9.02851884 4.51779031,10.1757779 6.0075079,11.3218857 C4.51779031,10.1757779 3.02891698,9.02851884 1.53989014,7.88172027 C1.46705439,8.01564903 1.38623664,8.14574029 1.32245738,8.2837368 C0.161153066,10.7955342 -0.227969457,13.4293641 0.126155064,16.1668832 C0.330540325,17.7468588 0.76862935,19.2637459 1.52814739,20.6758693 C2.42412694,22.5404339 3.69518377,24.1156509 5.31115511,25.390929 C9.21987933,28.4755117 13.6217223,29.23833 18.3970309,28.0313594 C20.42231,27.5192834 22.2227883,26.5551498 23.7476574,25.106954 C24.6425625,24.3445962 25.357412,23.4284314 25.952378,22.4252321 C27.8957649,19.1484674 28.3191947,15.6006985 27.7909244,11.8877635" id="Fill-1"></path>
            </g>
        </g>
    </g>
</svg>