<?xml version="1.0" encoding="UTF-8"?>
<svg width="96px" height="35px" viewBox="0 0 96 35" version="1.1" xmlns="http://www.w3.org/2000/svg" xmlns:xlink="http://www.w3.org/1999/xlink">
    <!-- Generator: Sketch 42 (36781) - http://www.bohemiancoding.com/sketch -->
    <title>Group 2</title>
    <desc>Created with Sketch.</desc>
    <defs>
        <polygon id="path-1" points="0 26.1934041 0 0.03675 27.9578986 0.03675 27.9578986 26.1934041 2.51891316e-15 26.1934041"></polygon>
    </defs>
    <g id="Page-1" stroke="none" stroke-width="1" fill="none" fill-rule="evenodd">
        <g id="Highball-Case-Study" transform="translate(-509.000000, -401.000000)">
            <g id="Group-2" transform="translate(509.000000, 401.000000)">
                <g id="Page-1">
                    <path d="M15.4258873,2.9968618 C17.6791831,0.0146015625 20.8118592,5.65732762e-06 20.8118592,5.65732762e-06 C20.8118592,5.65732762e-06 21.2777183,2.80389036 19.0392958,5.50492484 C16.6490986,8.38903044 13.9322535,7.91709617 13.9322535,7.91709617 C13.9322535,7.91709617 13.422169,5.64884725 15.4258873,2.9968618" id="Fill-1" fill="#000000"></path>
                    <g id="Group-5" transform="translate(0.000000, 8.244367)">
                        <mask id="mask-2" fill="white">
                            <use xlink:href="#path-1"></use>
                        </mask>
                        <g id="Clip-4"></g>
                        <path d="M14.2188563,1.63686853 C15.3781239,1.63686853 17.5295042,0.03675 20.3298986,0.03675 C25.150293,0.03675 27.0465746,3.48110075 27.0465746,3.48110075 C27.0465746,3.48110075 23.3376732,5.38524407 23.3376732,10.0056967 C23.3376732,15.2180189 27.9578986,17.0142204 27.9578986,17.0142204 C27.9578986,17.0142204 24.7281521,26.1428276 20.3657296,26.1428276 C18.3620113,26.1428276 16.8043775,24.7868793 14.6931662,24.7868793 C12.5417859,24.7868793 10.4067437,26.1934041 9.01626479,26.1934041 C5.03265915,26.1934041 -1.69014083e-05,17.5341288 -1.69014083e-05,10.5735792 C-1.69014083e-05,3.72521444 4.25987042,0.132698276 8.25536338,0.132698276 C10.8528282,0.132698276 12.8684901,1.63686853 14.2188563,1.63686853" id="Fill-3" fill="#000000" mask="url(#mask-2)"></path>
                    </g>
                </g>
                <path d="M39.1992188,26 L39.1992188,14.0029297 L37.3886719,14.0029297 L37.3886719,26 L39.1992188,26 Z M41.9677734,14.0029297 L46.4765625,14.0029297 C48.8583984,14.0029297 50.3701172,15.5849609 50.3701172,17.8261719 C50.3701172,20.0849609 48.8496094,21.6318359 46.4677734,21.6318359 L43.7695312,21.6318359 L43.7695312,26 L41.9677734,26 L41.9677734,14.0029297 Z M43.7695312,15.5410156 L43.7695312,20.1113281 L45.4570312,20.1113281 C47.3818359,20.1113281 48.515625,19.6806641 48.515625,17.8261719 C48.515625,16.3671875 47.6806641,15.5410156 46.2480469,15.5410156 L43.7695312,15.5410156 Z M61.5410156,26 L61.5410156,14.0029297 L59.7304688,14.0029297 L59.7304688,19.0302734 L54.0175781,19.0302734 L54.0175781,14.0029297 L52.2070312,14.0029297 L52.2070312,26 L54.0175781,26 L54.0175781,20.5947266 L59.7304688,20.5947266 L59.7304688,26 L61.5410156,26 Z M65.6542969,19.1972656 L65.6542969,20.9023438 C65.6542969,23.46875 66.9902344,24.6728516 68.7480469,24.6728516 C70.5146484,24.6728516 71.8417969,23.46875 71.8417969,20.9023438 L71.8417969,19.1972656 C71.8417969,16.6396484 70.5146484,15.3300781 68.7480469,15.3300781 C66.9902344,15.3300781 65.6542969,16.6396484 65.6542969,19.1972656 Z M63.8261719,20.9023438 L63.8261719,19.2148438 C63.8261719,15.8046875 65.7597656,13.7568359 68.765625,13.7568359 C71.7714844,13.7568359 73.6699219,15.8046875 73.6699219,19.2148438 L73.6699219,20.9023438 C73.6699219,24.2949219 71.7451172,26.2460938 68.7304688,26.2460938 C65.7246094,26.2460938 63.8261719,24.2949219 63.8261719,20.9023438 Z M77.6689453,26 L77.6689453,17.0703125 L77.7216797,17.0703125 L83.5664062,26 L85.2099609,26 L85.2099609,14.0029297 L83.4960938,14.0029297 L83.4960938,22.9150391 L83.4433594,22.9150391 L77.6074219,14.0029297 L75.9638672,14.0029297 L75.9638672,26 L77.6689453,26 Z M95.3525391,24.4443359 L89.7890625,24.4443359 L89.7890625,20.6386719 L95.0361328,20.6386719 L95.0361328,19.1445312 L89.7890625,19.1445312 L89.7890625,15.5585938 L95.3525391,15.5585938 L95.3525391,14.0029297 L87.9873047,14.0029297 L87.9873047,26 L95.3525391,26 L95.3525391,24.4443359 Z" id="IPHONE" fill="#000000"></path>
            </g>
        </g>
    </g>
</svg>