<?xml version="1.0" encoding="UTF-8"?>
<svg width="541px" height="156px" viewBox="0 0 541 156" version="1.1" xmlns="http://www.w3.org/2000/svg" xmlns:xlink="http://www.w3.org/1999/xlink">
    <!-- Generator: Sketch 48.2 (47327) - http://www.bohemiancoding.com/sketch -->
    <title>dosh_logo</title>
    <desc>Created with Sketch.</desc>
    <defs>
        <polygon id="path-1" points="0 1.42042286 0 136.201068 113.518455 136.201068 113.518455 1.42042286 0 1.42042286"></polygon>
        <polygon id="path-3" points="103.778002 137.166203 103.778002 0.458478808 0.0439860295 0.458478808 0.0439860295 137.166203 103.778002 137.166203"></polygon>
    </defs>
    <g id="greek-moji-slider-back" stroke="none" stroke-width="1" fill="none" fill-rule="evenodd" transform="translate(-728.000000, -412.000000)">
        <g id="dosh_logo" transform="translate(728.000000, 409.000000)">
            <g id="Page-1">
                <g id="Group-3" transform="translate(0.000000, 11.813885)">
                    <mask id="mask-2" fill="white">
                        <use xlink:href="#path-1"></use>
                    </mask>
                    <g id="Clip-2"></g>
                    <path d="M44.8530425,122.146795 C77.5249327,122.146795 98.3814781,99.0409941 98.3814781,69.1967995 L98.3814781,68.8107456 C98.3814781,38.9697415 77.5249327,15.4746967 44.8530425,15.4746967 L14.5821479,15.4746967 L14.5821479,122.146795 L44.8530425,122.146795 Z M-0.00122343719,9.12235635 C-0.00122343719,4.8885263 3.32040853,1.42042286 7.19870442,1.42042286 L44.8530425,1.42042286 C85.4619814,1.42042286 113.518455,30.4925098 113.518455,68.4246918 L113.518455,68.8107456 C113.518455,106.742928 85.4619814,136.201068 44.8530425,136.201068 L7.19870442,136.201068 C3.32040853,136.201068 -0.00122343719,132.732965 -0.00122343719,128.499135 L-0.00122343719,9.12235635 Z" id="Fill-1" fill="#FFFFFF" mask="url(#mask-2)"></path>
                </g>
                <path d="M150.683418,80.6252691 C150.683418,111.241571 172.093569,136.27126 201.627343,136.27126 C231.161116,136.27126 252.204236,111.627625 252.204236,81.011323 L252.204236,80.6252691 C252.204236,50.0089668 230.791027,24.9824688 201.260311,24.9824688 C171.726538,24.9824688 150.683418,49.6261035 150.683418,80.2392153 L150.683418,80.6252691 Z M267.338154,80.6252691 C267.338154,117.785343 240.575465,150.325534 201.260311,150.325534 C161.942099,150.325534 135.546441,118.171397 135.546441,81.011323 L135.546441,80.6252691 C135.546441,43.4683854 162.312188,10.9250044 201.627343,10.9250044 C240.942497,10.9250044 267.338154,43.079141 267.338154,80.2392153 L267.338154,80.6252691 Z" id="Fill-4" fill="#FFFFFF"></path>
                <g id="Group-8" transform="translate(403.070616, 11.813885)">
                    <mask id="mask-4" fill="white">
                        <use xlink:href="#path-3"></use>
                    </mask>
                    <g id="Clip-7"></g>
                    <path d="M0.0439860295,8.1604123 C0.0439860295,3.92339172 3.365618,0.458478808 7.24391389,0.458478808 C11.3026668,0.458478808 14.6273573,3.92339172 14.6273573,8.1604123 L14.6273573,61.3018391 L89.195854,61.3018391 L89.195854,8.1604123 C89.195854,3.92339172 92.517486,0.458478808 96.5792975,0.458478808 C100.457593,0.458478808 103.779225,3.92339172 103.779225,8.1604123 L103.779225,129.464269 C103.779225,133.70129 100.457593,137.166203 96.5792975,137.166203 C92.517486,137.166203 89.195854,133.70129 89.195854,129.464269 L89.195854,75.5507351 L14.6273573,75.5507351 L14.6273573,129.464269 C14.6273573,133.70129 11.3026668,137.166203 7.24391389,137.166203 C3.365618,137.166203 0.0439860295,133.70129 0.0439860295,129.464269 L0.0439860295,8.1604123 Z" id="Fill-6" fill="#FFFFFF" mask="url(#mask-4)"></path>
                </g>
                <g id="Group-11" transform="translate(287.507739, 2.242303)" fill="#FFFFFF">
                    <path d="M83.8947584,22.3525169 C74.0338546,14.9600646 63.7508651,10.6943293 50.7579621,9.47235722 C50.6784387,9.46597617 50.6172668,9.39897509 50.6172668,9.31602137 L50.6172668,8.08447774 C50.6172668,4.92585547 48.7117634,1.93633117 45.7755142,1.1642235 C41.493484,0.0411578053 37.6182467,3.43587911 37.6182467,7.72713866 L37.6182467,9.3192119 C15.7431898,11.3324348 0.278943679,26.1683879 0.278943679,45.8411807 L0.278943679,46.2272345 C0.278943679,62.3713039 7.58898089,72.0481739 23.0440512,78.7291386 C23.6129495,78.9078081 25.7753747,79.5012463 27.3230227,78.7482818 L44.3410341,70.4624817 C45.5216509,69.8945678 44.3440926,69.7286604 44.2033974,69.6935646 C20.0313371,63.6251812 14.862315,56.7974523 14.862315,44.8840224 L14.862315,44.4947781 C14.862315,32.3643923 25.5673904,22.7385707 42.3621244,22.7385707 C54.3609846,22.7385707 64.8825445,26.2034837 75.774194,34.4829026 C76.6948305,35.1720566 77.6185256,35.5644915 78.6767988,35.7335894 C82.4388681,36.3302181 86.2315234,33.7746055 86.9135896,29.8693998 C87.5375426,26.2896279 85.5953361,23.6829669 83.8947584,22.3525169" id="Fill-9"></path>
                </g>
                <path d="M355.313075,78.8210258 C354.527017,78.6008794 352.670451,78.2020635 351.287967,78.8656932 L333.603182,87.4737365 C333.395198,87.5758334 333.444136,87.8948861 333.670472,87.9491251 C358.653059,93.8005526 364.758011,100.86119 364.758011,112.972433 L364.758011,113.358486 C364.758011,126.643843 353.312756,136.272855 335.964416,136.272855 C319.533655,136.272855 307.354338,131.072295 295.171962,120.288312 C294.248267,119.327963 292.587451,118.555856 290.740061,118.555856 C286.864823,118.555856 283.726707,121.829337 283.726707,126.066358 C283.726707,128.570922 284.833918,130.689432 286.494734,131.841213 C298.144914,141.50213 310.672911,147.30889 324.993243,149.200873 C325.069708,149.210444 325.124763,149.277446 325.124763,149.357209 L325.124763,151.373622 C325.124763,154.573721 327.048618,157.623866 330.027687,158.37683 C334.285249,159.452038 338.123783,156.070079 338.123783,151.797962 L338.123783,149.842169 C362.347839,148.808438 379.524897,134.093725 379.524897,111.817462 L379.524897,111.434598 C379.524897,95.7308218 371.743837,85.6391832 355.313075,78.8210258" id="Fill-12" fill="#FFFFFF"></path>
            </g>
            <path d="M540.48,18.84 L540.48,18.9 C540.48,24.6 535.86,29.4 530.04,29.4 C524.16,29.4 519.6,24.66 519.6,18.96 L519.6,18.9 C519.6,13.2 524.22,8.4 530.04,8.4 C535.92,8.4 540.48,13.14 540.48,18.84 Z M520.8,18.9 L520.8,18.96 C520.8,24.06 524.76,28.26 530.04,28.26 C535.26,28.26 539.28,24 539.28,18.9 L539.28,18.84 C539.28,13.74 535.32,9.54 530.04,9.54 C524.82,9.54 520.8,13.8 520.8,18.9 Z M525.48,22.92 L525.48,14.76 C525.48,13.92 526.2,13.2 527.04,13.2 L530.76,13.2 C533.52,13.2 535.38,14.4 535.38,16.98 C535.38,18.54 534.6,19.68 533.34,20.28 L534.72,21.9 C535.02,22.26 535.14,22.56 535.14,22.98 C535.14,23.82 534.42,24.48 533.58,24.48 C533.04,24.48 532.68,24.24 532.38,23.88 L530.04,20.94 L528.6,20.94 L528.6,22.92 C528.6,23.76 527.88,24.48 527.04,24.48 C526.2,24.48 525.48,23.76 525.48,22.92 Z M528.6,18.48 L530.58,18.48 C531.66,18.48 532.26,17.94 532.26,17.16 C532.26,16.32 531.66,15.84 530.58,15.84 L528.6,15.84 L528.6,18.48 Z" id="®" fill="#FFFFFF"></path>
        </g>
    </g>
</svg>