<?xml version="1.0" encoding="UTF-8"?>
<svg width="370px" height="113px" viewBox="0 0 370 113" version="1.1" xmlns="http://www.w3.org/2000/svg" xmlns:xlink="http://www.w3.org/1999/xlink">
    <!-- Generator: Sketch 42 (36781) - http://www.bohemiancoding.com/sketch -->
    <title>Page 1</title>
    <desc>Created with Sketch.</desc>
    <defs></defs>
    <g id="Page-1" stroke="none" stroke-width="1" fill="none" fill-rule="evenodd">
        <g id="Highball-Case-Study" transform="translate(-455.000000, -110.000000)">
            <g id="Page-1" transform="translate(455.000000, 110.000000)">
                <g id="Group-3" transform="translate(0.000000, 0.395507)" fill="#FFFFFF">
                    <path d="M106.962094,63.2877973 C106.945019,63.2846892 106.923287,63.2846892 106.896897,63.2846892 C107.623374,61.7617162 108.373136,60.175027 109.161705,58.5090811 C115.973203,44.0827973 124.028094,29.3565811 123.9986,27.3953649 C123.952031,24.7425946 118.508111,16.3677973 117.34699,16.1082703 C115.594441,15.7135405 113.803086,21.2661757 113.509701,21.8147568 C112.832897,23.1030676 109.188094,33.1438108 101.667195,52.6394189 C100.163015,56.5400946 98.8171695,60.0740135 97.6094791,63.2722568 C90.5589268,63.3235405 80.3416799,63.4416486 69.7534331,63.5877297 C75.7887803,44.0439459 85.1258724,13.8113784 84.8169644,11.8952297 C84.3341987,8.89124324 76.7791485,0.266243243 75.4146757,0.160567568 C73.3594289,0.00205405405 72.2309059,6.60212162 71.9887469,7.27968919 C71.4469937,8.80266216 63.9136757,40.5162432 58.5722071,63.7586757 C54.4508473,63.8270541 50.4195209,63.8954324 46.6520858,63.9669189 C8.42977197,64.7019865 1.01132427,65.2785405 0.152901674,67.3065811 C-1.14171757,70.3494189 5.10319038,70.8793514 45.3931695,73.055027 C48.4698305,73.2213108 52.2201904,73.3907027 56.3384456,73.5616486 C49.35309,104.347459 48.4015293,110.773473 50.0314456,112.004284 C52.6237887,113.962392 55.191295,110.773473 66.5619017,73.9361757 C75.8648431,74.2485405 85.7126423,74.5018514 93.4446548,74.6028649 C88.7272113,87.832527 87.9572699,92.0346892 88.9057259,92.9919865 C90.5247762,94.6284054 92.8920356,91.9523243 101.414169,74.6417162 C104.913056,74.6230676 107.201149,74.5251622 107.648211,74.3309054 C110.443906,73.1342838 114.916086,66.2373919 114.68945,64.890027 C114.343287,62.8557703 107.673048,63.3592838 106.962094,63.2877973 M300.929897,24.2686081 C300.863149,13.4384054 283.90581,-2.79368919 255.382274,16.3196216 C241.441056,25.675027 230.217918,40.0158378 222.481249,59.6497568 C283.079985,55.8298919 301.010617,38.267527 300.929897,24.2686081 M285.327718,55.3807703 C273.57214,59.6932703 257.440626,62.6521892 253.434136,63.3484054 C255.455232,64.4999595 267.134747,74.4878649 257.0184,85.5216486 C251.481341,91.5622568 241.799638,93.352527 233.830123,93.352527 L233.822362,93.352527 C224.961826,93.352527 221.127642,91.0369865 221.543659,89.6119189 C222.416052,86.6514459 244.334546,88.2661081 249.132709,80.5766486 C254.860701,71.4092838 242.572684,65.580027 230.363835,65.580027 C227.175408,65.580027 224.334697,65.7540811 220.629354,66.097527 C217.338475,75.9952973 215.56109,91.2265811 213.671939,92.9002973 C212.142923,94.2600946 206.064111,86.5535405 205.756755,84.5488108 C205.617048,83.6459054 206.01599,81.1361081 206.579475,78.2968514 C204.708952,81.2852973 196.939684,92.5599595 185.620303,93.5561081 C180.93701,93.9757027 176.0395,83.9458378 185.728964,72.1427973 C182.498626,73.1032027 176.374797,75.3161757 169.299408,85.3895541 C165.103538,93.0479324 163.496906,94.2025946 162.303186,92.9919865 C160.954236,91.6306351 163.070023,83.7438108 175.066207,52.6394189 C182.587107,33.1438108 186.224149,23.1030676 186.904056,21.8147568 C187.197441,21.2661757 188.985692,15.7135405 190.739793,16.1082703 C191.900914,16.3677973 197.351044,24.7425946 197.392956,27.3953649 C197.419345,29.3565811 189.362902,44.0827973 182.556061,58.5090811 C180.524098,62.8060405 178.714115,66.6041486 177.088856,69.9624595 C183.555743,64.2357703 196.945893,57.0063108 200.564308,64.3880676 C202.172492,67.6686757 189.055546,78.8096892 189.870504,86.5535405 C203.713927,80.5502297 209.140772,67.1014459 209.140772,67.1014459 C207.217471,67.1014459 205.83437,65.4805676 205.2476,64.3290135 C204.677906,63.2069865 204.958872,62.5480676 205.284856,62.1890811 C205.686902,61.7617162 206.371467,61.5208378 211.548391,60.8898919 C219.753856,40.2924595 230.664981,24.7814459 243.988383,14.8028649 C255.767245,5.9805 268.565969,1.31678378 281.001454,1.31678378 C297.313036,1.31678378 310.558822,6.9952973 313.792266,20.3446216 C317.05986,33.8415811 305.75445,47.8871216 285.327718,55.3807703 M289.380776,68.3819865 C288.739676,66.7238108 286.605262,66.3321892 284.993973,67.0765811 C278.129697,70.2484054 271.679885,84.8860405 277.266617,85.9194865 C284.206956,87.2062432 291.173684,72.708473 289.380776,68.3819865 M337.342228,27.3953649 C337.374826,29.3565811 329.315278,44.0827973 322.505333,58.5090811 C307.483713,90.3221216 304.276659,95.0417838 302.252458,92.9919865 C301.584969,92.3252973 301.765036,90.0486081 303.570362,84.1680676 C301.656374,86.3810405 295.470454,93.120973 288.612387,93.120973 C287.064743,93.120973 284.133998,92.4216486 283.679174,89.0493514 C282.311596,90.247527 276.422165,94.5957703 270.495479,92.9826622 C255.203759,88.8333378 270.764027,63.0717838 281.903341,61.1696216 C289.124646,59.9372568 292.241667,63.7648919 292.893634,65.2723243 C298.31427,59.7010405 301.626881,64.0011081 301.626881,64.0011081 C301.626881,64.0011081 291.540027,83.9458378 293.734981,85.3382703 C296.547751,87.1254324 305.194069,77.2323243 306.325697,75.9098243 C308.354554,70.1629324 311.170429,62.5977973 315.013927,52.6394189 C322.534826,33.1438108 326.178077,23.1030676 326.854881,21.8147568 C327.142056,21.2661757 328.939621,15.7135405 330.695274,16.1082703 C331.854843,16.3677973 337.295659,24.7425946 337.342228,27.3953649 M154.96701,68.3819865 C154.327462,66.7238108 152.193048,66.3321892 150.580207,67.0765811 C143.715931,70.2484054 137.272328,84.8860405 142.852851,85.9194865 C149.796295,87.2062432 156.763023,72.708473 154.96701,68.3819865 M167.21622,64.0011081 C157.224056,78.3232703 157.418094,126.767797 117.174684,106.181243 C111.827006,103.443 123.537567,96.8429324 127.467994,99.2563784 C143.726797,109.238068 149.265408,89.0493514 149.265408,89.0493514 C147.902487,90.247527 142.013056,94.5957703 136.077056,92.9826622 C131.65455,91.7813784 129.818178,88.7711757 129.706412,85.0554324 C126.800504,89.0602297 120.144236,93.9601622 116.091178,93.4892838 C103.377831,92.0129324 114.697211,59.6497568 133.892969,62.3911081 C133.892969,62.3911081 122.840584,76.2004324 120.89555,85.1160405 C124.115023,84.6902297 127.826575,82.0188108 131.005688,78.3015135 C133.965927,70.4115811 141.390584,62.2139459 147.491128,61.1696216 C154.710881,59.9372568 157.834111,63.7648919 158.481421,65.2723243 C163.900504,59.7010405 167.21622,64.0011081 167.21622,64.0011081 M364.611504,4.97658108 C365.729161,5.37752703 370.119069,14.3537432 369.845864,16.9894189 C369.64096,18.9413108 349.594542,47.7255 341.080169,61.2193514 C322.320609,90.9717162 318.562487,95.2702297 316.80373,92.9919865 C315.628638,91.4814459 318.67891,83.9054324 334.3556,54.4871892 C344.18322,36.0452297 359.277797,11.3715135 360.108278,10.1811081 C360.468412,9.67137838 362.913287,4.37360811 364.611504,4.97658108" id="Fill-1"></path>
                </g>
                <path d="M150.608304,46.0143311 C150.608304,53.5375068 144.518626,59.6247365 137.010145,59.6247365 C129.500111,59.6247365 123.411986,53.5375068 123.411986,46.0143311 C123.411986,38.4958176 129.500111,32.4054797 137.010145,32.4054797 C144.518626,32.4054797 150.608304,38.4958176 150.608304,46.0143311" id="Fill-4" fill="#DBAE27"></path>
                <path d="M48.4148791,47.2951824 C50.661059,46.3503176 51.1081218,49.898223 45.2450799,51.3279527 C46.0600381,49.5858581 47.2661762,47.7753851 48.4148791,47.2951824 M55.8209084,30.0591689 C57.5687996,31.6209932 58.5607201,37.8403176 37.4152724,40.0905878 C45.2574983,29.5711959 53.6973603,28.1601149 55.8209084,30.0591689 M59.3880967,28.3186284 C53.8898456,22.6634257 41.174946,26.8531554 33.0470967,40.468223 C31.7028038,40.5661284 30.2808958,40.6469392 28.7844774,40.7122095 C30.0992766,38.0998446 31.095854,36.1044392 31.0896448,35.6926149 C31.0725695,34.7601824 29.158582,31.8136959 28.7518791,31.7235608 C28.1340632,31.58525 27.5022766,33.5418041 27.401377,33.7329527 C27.2073393,34.0966014 26.3520213,36.4307905 24.6646699,40.84275 C20.4222305,40.9437635 15.6473519,40.9251149 10.2546573,40.7634932 C10.2546573,40.7634932 7.96501297,40.6484932 7.66076192,41.4224122 C7.32701715,42.2864662 8.50521381,42.3921419 8.50521381,42.3921419 C14.1260967,42.9236284 19.1757326,43.2313311 23.7084523,43.3509932 C23.5563268,43.745723 23.3964397,44.1544392 23.2350004,44.5771419 C19.0173979,55.5161284 18.270741,58.293223 18.7457452,58.7734257 C19.4582515,59.4929527 20.5883268,57.8316689 25.8708079,46.6393716 C26.386172,45.5453176 26.9217159,44.4528176 27.4432891,43.3960608 C28.8388079,43.3976149 30.1924146,43.3882905 31.4777201,43.3587635 C29.4969837,47.3091689 27.8903519,51.9091689 26.886013,57.1789662 C26.886013,57.1789662 26.5414021,58.7423446 27.319105,58.4936959 C28.4227912,58.1486959 28.8527787,57.0997095 28.8527787,57.0997095 C29.1880757,56.1144392 29.5342389,55.1726824 29.8835067,54.2542365 C32.2073017,51.3217365 34.1802766,50.6115338 35.2715444,50.2867365 C31.6810715,54.6598446 33.4926071,58.38025 35.2280799,58.2279527 C37.3935402,58.0368041 39.2035234,56.8355203 40.5493686,55.5643041 C40.5881762,56.8355203 41.1935736,57.7570743 42.5642556,57.9528851 C46.3922305,58.49525 50.387854,54.5650473 49.0109628,54.1578851 C48.3481301,53.9605203 46.4745025,56.1051149 44.8337201,55.6000473 C43.9613268,55.3280878 44.0637787,54.0226824 44.6831469,52.5090338 C53.984536,51.5035608 53.0702305,47.1320068 52.3390967,45.9928851 C51.6576364,44.8646419 49.759172,44.5662635 48.4102222,45.0355878 C45.3770255,46.0938986 42.5471803,49.4149122 41.2634272,52.4313311 C40.1675025,53.6155203 38.6990255,54.8090338 36.8067703,55.6311284 C36.5056238,52.7561284 41.3689837,48.6270068 40.7729,47.4070743 C39.3758289,44.550723 34.0265987,47.5935608 31.771105,49.7474797 C32.8949711,47.3091689 34.0762724,45.1288311 35.2932766,43.1924797 C61.420059,41.6508581 62.8931929,31.9286959 59.3880967,28.3186284" id="Fill-6" fill="#DBAE27"></path>
            </g>
        </g>
    </g>
</svg>