<?xml version="1.0" encoding="UTF-8"?>
<svg width="177px" height="40px" viewBox="0 0 177 40" version="1.1" xmlns="http://www.w3.org/2000/svg" xmlns:xlink="http://www.w3.org/1999/xlink">
    <!-- Generator: Sketch 48.2 (47327) - http://www.bohemiancoding.com/sketch -->
    <title>see_case_study</title>
    <desc>Created with Sketch.</desc>
    <defs></defs>
    <g id="Artboard" stroke="none" stroke-width="1" fill="none" fill-rule="evenodd" transform="translate(-203.000000, -499.000000)">
        <g id="see_case_study" transform="translate(204.000000, 500.000000)">
            <g id="Group-5">
                <g id="Group-4" stroke="#FFFFFF" stroke-linecap="round" stroke-linejoin="round" stroke-width="2">
                    <g id="Page-1">
                        <polyline id="Stroke-7" points="126.994434 38.0002 0.078998773 38.0002 0.078998773 0.0002 174.999244 0.0002 174.999244 38.0002 164.785845 38.0002"></polyline>
                    </g>
                    <path d="M131,38 L161,38" id="Path-4"></path>
                </g>
                <path d="M33.797546,0.682617188 L33.797546,8.89001465" id="Path-3" stroke="#FFFFFF" stroke-width="2" stroke-linecap="round" stroke-linejoin="round"></path>
                <path d="M33.797546,12.6799927 L33.797546,15.8900146" id="Path-3-Copy" stroke="#FFFFFF" stroke-width="2" stroke-linecap="round" stroke-linejoin="round"></path>
                <path d="M33.797546,19.6799927 L33.797546,37.8900146" id="Path-3-Copy-2" stroke="#FFFFFF" stroke-width="2" stroke-linecap="round" stroke-linejoin="round"></path>
                <text id="DOWNLOAD-DOSH" font-family="GothamRounded-Medium, Gotham Rounded" font-size="12" font-weight="400" fill="#FFFFFF">
                    <tspan x="46.736773" y="24">DOWNLOAD DOSH</tspan>
                </text>
            </g>
            <g id="Group-6" transform="translate(11.000000, 10.000000)" fill="#FFFFFF">
                <g id="Group-11" transform="translate(0.825851, 0.220116)">
                    <path d="M9.22842342,2.51465815 C8.14372401,1.68300727 7.01259516,1.20311204 5.58337583,1.06564019 C5.57462826,1.06492232 5.56789935,1.0573847 5.56789935,1.0480524 L5.56789935,0.909503746 C5.56789935,0.554158741 5.35829398,0.217837256 5.03530656,0.130975144 C4.56428324,0.0046302531 4.13800714,0.3865364 4.13800714,0.869303099 L4.13800714,1.04841134 C1.73175087,1.27489891 0.0306838047,2.94394363 0.0306838047,5.15713283 L0.0306838047,5.20056388 C0.0306838047,7.01677169 0.834787897,8.10541957 2.53484563,8.85702809 C2.59742444,8.87712842 2.83529122,8.94389021 3.0055325,8.8591817 L4.87751375,7.9270292 C5.0073816,7.86313888 4.87785019,7.8444743 4.86237371,7.84052602 C2.20344708,7.15783289 1.63485465,6.38971338 1.63485465,5.04945252 L1.63485465,5.00566253 C1.63485465,3.64099414 2.81241294,2.55808921 4.65983368,2.55808921 C5.97970831,2.55808921 7.13707989,2.94789191 8.33516134,3.87932655 C8.43643136,3.95685637 8.53803782,4.00100529 8.65444786,4.02002881 C9.06827549,4.08714953 9.48546758,3.79964312 9.56049486,3.36030748 C9.62912969,2.95758314 9.41548697,2.66433378 9.22842342,2.51465815" id="Fill-9"></path>
                </g>
                <path d="M8.28443829,8.83522255 C8.19797187,8.81045608 7.99374962,8.76558928 7.84167638,8.84024763 L5.89635007,9.8086525 C5.8734718,9.8201384 5.87885492,9.85603183 5.90375187,9.86213372 C8.65183648,10.5204193 9.32338116,11.314741 9.32338116,12.6772558 L9.32338116,12.7206869 C9.32338116,14.2152895 8.06440312,15.2985534 6.15608579,15.2985534 C4.34870203,15.2985534 3.00897713,14.7134904 1.66891579,13.5002923 C1.56730934,13.392253 1.38461958,13.3053909 1.18140666,13.3053909 C0.755130558,13.3053909 0.409937755,13.6736576 0.409937755,14.1503224 C0.409937755,14.4320858 0.531730927,14.6704183 0.714420685,14.7999936 C1.99594055,15.8868468 3.37402021,16.5401073 4.94925676,16.7529553 C4.95766789,16.7540321 4.9637239,16.7615698 4.9637239,16.7705431 L4.9637239,16.9973896 C4.9637239,17.3574008 5.17534795,17.700542 5.5030456,17.7852505 C5.97137736,17.9062114 6.39361612,17.525741 6.39361612,17.0451279 L6.39361612,16.8251011 C9.05826232,16.7088064 10.9477387,15.0534012 10.9477387,12.5473216 L10.9477387,12.5042495 C10.9477387,10.7375746 10.0918221,9.60226525 8.28443829,8.83522255" id="Fill-12"></path>
            </g>
            <path d="M33.797546,19.6799927 L33.797546,37.8900146" id="Path-3-Copy-2" stroke="#FFFFFF" stroke-width="2" stroke-linecap="round" stroke-linejoin="round"></path>
        </g>
    </g>
</svg>